# xmcd
#
# Track frame offsets:
#   150
#   16327
#   38808
#   75797
#   116731
#
# Disc length: 1951 seconds
# Revision: 0
# Processed by: cddbd v1.5.2PL0 Copyright (c) Steve Scherf et al.
# Submitted via: dBpowerAMP V12.0
#
DISCID=2c079d05
DTITLE=Wamdue Project / King Of My Castle (Maxi)
DYEAR=1998
DGENRE=Electronic*
TTITLE0=King Of My Castle (Roy Malones King Edit)
TTITLE1=King Of My Castle (Roy Malones King Mix)
TTITLE2=King Of My Castle (Original Mix)
TTITLE3=King Of My Castle (S'Man's Comin' 4 Ya Castle Mix)
TTITLE4=King Of My Castle (Charles Schilling Toboggan Mix)
EXTD=
EXTT0=
EXTT1=
EXTT2=
EXTT3=
EXTT4=
PLAYORDER=
.
